<?xml version="1.0" encoding="UTF-8" standalone="no"?>
<svg
   width="1024"
   height="1024"
   viewBox="0 0 1024 1024"
   version="1.1"
   id="svg6"
   sodipodi:docname="TavoAI.svg"
   inkscape:version="1.4.2 (f4327f4, 2025-05-13)"
   xmlns:inkscape="http://www.inkscape.org/namespaces/inkscape"
   xmlns:sodipodi="http://sodipodi.sourceforge.net/DTD/sodipodi-0.dtd"
   xmlns:xlink="http://www.w3.org/1999/xlink"
   xmlns="http://www.w3.org/2000/svg"
   xmlns:svg="http://www.w3.org/2000/svg">
  <defs
     id="defs6">
    <linearGradient
       id="linearGradient6"
       inkscape:collect="always">
      <stop
         style="stop-color:#0c4ce1;stop-opacity:1;"
         offset="0.64912277"
         id="stop6" />
      <stop
         style="stop-color:#0c4ce1;stop-opacity:0;"
         offset="1"
         id="stop7" />
    </linearGradient>
    <linearGradient
       inkscape:collect="always"
       xlink:href="#linearGradient6"
       id="linearGradient7"
       x1="293.29507"
       y1="377.49176"
       x2="756.91913"
       y2="667.19623"
       gradientUnits="userSpaceOnUse" />
  </defs>
  <sodipodi:namedview
     id="namedview6"
     pagecolor="#ffffff"
     bordercolor="#000000"
     borderopacity="0.25"
     inkscape:showpageshadow="2"
     inkscape:pageopacity="0.0"
     inkscape:pagecheckerboard="0"
     inkscape:deskcolor="#d1d1d1"
     showgrid="false"
     inkscape:zoom="2.35"
     inkscape:cx="571.06383"
     inkscape:cy="509.57447"
     inkscape:window-width="2560"
     inkscape:window-height="1494"
     inkscape:window-x="-11"
     inkscape:window-y="-11"
     inkscape:window-maximized="1"
     inkscape:current-layer="svg6" />
  <path
     d="m 528.68652,557.81639 -23.42934,-54.70679 28.33913,-51.49137 -127.89328,1.02491 c 122.62533,282.16935 0.45531,1.05946 122.07073,284.28302 142.24849,-250.8344 166.02743,-293.21732 166.02743,-293.21732 -0.91569,3.87346 32.79315,-31.72843 59.18552,-65.74015 26.39242,-34.01171 45.46824,-66.43326 45.46824,-66.5572 0,-0.29 -552.0207,-11.76183 -546.65682,7.51859 0,0 -0.17485,6.37255 1.22341,12.67293 1.39826,6.30038 4.36964,12.52859 8.7109,20.04477 8.68252,15.03237 24.79574,27.4118 35.22601,33.52024 20.00604,11.71646 47.73267,14.791 47.73267,14.791 l 270.86343,-2.50549"
     stroke="none"
     fill="#0c4ce1"
     fill-rule="evenodd"
     id="path4"
     style="fill:url(#linearGradient7);fill-opacity:1"
     sodipodi:nodetypes="ccccccsssssscc" />
  <g
     inkscape:groupmode="layer"
     id="layer1"
     inkscape:label="final" />
</svg>
